<?xml version="1.0" encoding="utf-8"?>
<!-- Generator: Adobe Illustrator 27.0.0, SVG Export Plug-In . SVG Version: 6.00 Build 0)  -->
<svg version="1.1" id="Capa_1" xmlns="http://www.w3.org/2000/svg" xmlns:xlink="http://www.w3.org/1999/xlink" x="0px" y="0px"
	 viewBox="0 0 655 185" style="enable-background:new 0 0 655 185;" xml:space="preserve">
<style type="text/css">
	.st0{fill:url(#SVGID_1_);}
	.st1{fill:url(#SVGID_00000029765908116302840880000016283463827882350228_);}
	
		.st2{fill:url(#SVGID_00000127026421713016638290000018203202436519860136_);stroke:#000000;stroke-width:0.5;stroke-miterlimit:10;}
	
		.st3{fill:url(#SVGID_00000039135644840602898110000001903450821305979318_);stroke:#000000;stroke-width:0.5;stroke-miterlimit:10;}
	
		.st4{fill:url(#SVGID_00000033338092435774768620000015043436017641637785_);stroke:#000000;stroke-width:0.5;stroke-miterlimit:10;}
	
		.st5{fill:url(#SVGID_00000093874745150406206010000005184579371796302990_);stroke:#000000;stroke-width:0.5;stroke-miterlimit:10;}
	
		.st6{fill:url(#SVGID_00000160904677948069062660000003186401821171311540_);stroke:#000000;stroke-width:0.5;stroke-miterlimit:10;}
	.st7{fill:#AE2532;stroke:#000000;stroke-miterlimit:10;}
</style>
<linearGradient id="SVGID_1_" gradientUnits="userSpaceOnUse" x1="29.7706" y1="39.4688" x2="156.1709" y2="145.5312">
	<stop  offset="0" style="stop-color:#FFFFFF"/>
	<stop  offset="0.0381" style="stop-color:#ECEFF2"/>
	<stop  offset="0.0884" style="stop-color:#DBE1E6"/>
	<stop  offset="0.1511" style="stop-color:#D0D7DD"/>
	<stop  offset="0.2391" style="stop-color:#C9D2D8"/>
	<stop  offset="0.4832" style="stop-color:#C7D0D7"/>
	<stop  offset="0.5863" style="stop-color:#C3CCD3;stop-opacity:0.9801"/>
	<stop  offset="0.6861" style="stop-color:#B8C1C7;stop-opacity:0.9607"/>
	<stop  offset="0.7847" style="stop-color:#A6AEB4;stop-opacity:0.9417"/>
	<stop  offset="0.8825" style="stop-color:#8D9499;stop-opacity:0.9227"/>
	<stop  offset="0.9789" style="stop-color:#6C7276;stop-opacity:0.9041"/>
	<stop  offset="1" style="stop-color:#646A6D;stop-opacity:0.9"/>
</linearGradient>
<circle class="st0" cx="92.97" cy="92.5" r="82.5"/>
<linearGradient id="SVGID_00000008142682489870828380000015851028138123615376_" gradientUnits="userSpaceOnUse" x1="35.0795" y1="43.9235" x2="150.862" y2="141.0766">
	<stop  offset="0" style="stop-color:#00507F"/>
	<stop  offset="0.0118" style="stop-color:#004D7A"/>
	<stop  offset="0.0753" style="stop-color:#004064"/>
	<stop  offset="0.1503" style="stop-color:#003653"/>
	<stop  offset="0.2431" style="stop-color:#002F48"/>
	<stop  offset="0.3732" style="stop-color:#002B41"/>
	<stop  offset="0.7346" style="stop-color:#002A3F"/>
	<stop  offset="0.8028" style="stop-color:#00273B;stop-opacity:0.9743"/>
	<stop  offset="0.8688" style="stop-color:#00202F;stop-opacity:0.9494"/>
	<stop  offset="0.934" style="stop-color:#00131C;stop-opacity:0.9249"/>
	<stop  offset="0.9983" style="stop-color:#000101;stop-opacity:0.9006"/>
	<stop  offset="1" style="stop-color:#000000;stop-opacity:0.9"/>
</linearGradient>
<circle style="fill:url(#SVGID_00000008142682489870828380000015851028138123615376_);" cx="92.97" cy="92.5" r="75.57"/>
<linearGradient id="SVGID_00000034773918795703406090000010465299530100332221_" gradientUnits="userSpaceOnUse" x1="43.2262" y1="89.1288" x2="69.2265" y2="110.9457">
	<stop  offset="0" style="stop-color:#1C80A0"/>
	<stop  offset="0.021" style="stop-color:#1C7E9E"/>
	<stop  offset="0.1787" style="stop-color:#1B7695"/>
	<stop  offset="0.3994" style="stop-color:#1B7492"/>
	<stop  offset="1" style="stop-color:#0B3E4E"/>
</linearGradient>
<path style="fill:url(#SVGID_00000034773918795703406090000010465299530100332221_);stroke:#000000;stroke-width:0.5;stroke-miterlimit:10;" d="
	M48.57,83.11c-4.88,2.67-1.34,17.17-1.07,18.21c1.4,5.53,3.73,8.84,5.36,10.71c2.1,2.43,4.95,5.72,8.57,5.36
	c3.87-0.39,6.09-4.7,6.43-5.36c3.12-6.04-0.11-12.95-1.07-15C62.71,88.32,52.91,80.74,48.57,83.11z"/>
<linearGradient id="SVGID_00000070114389312451943060000010393702762812823964_" gradientUnits="userSpaceOnUse" x1="53.1568" y1="56.457" x2="82.3415" y2="80.9459">
	<stop  offset="0" style="stop-color:#1C80A0"/>
	<stop  offset="0.021" style="stop-color:#1C7E9E"/>
	<stop  offset="0.1787" style="stop-color:#1B7695"/>
	<stop  offset="0.3994" style="stop-color:#1B7492"/>
	<stop  offset="1" style="stop-color:#0B3E4E"/>
</linearGradient>
<path style="fill:url(#SVGID_00000070114389312451943060000010393702762812823964_);stroke:#000000;stroke-width:0.5;stroke-miterlimit:10;" d="
	M61.43,47.75c5.14-1.71,12.16,6.4,15,10.71c5.05,7.67,7.34,19.25,2.14,26.79c-0.95,1.38-2.62,3.79-5.36,4.29
	c-5.86,1.06-12.29-7.47-15-13.93C53.67,64.77,55.4,49.76,61.43,47.75z"/>
<linearGradient id="SVGID_00000138532371424613539860000005565888755946457765_" gradientUnits="userSpaceOnUse" x1="84.485" y1="47.5858" x2="115.8087" y2="73.8695">
	<stop  offset="0" style="stop-color:#1C80A0"/>
	<stop  offset="0.021" style="stop-color:#1C7E9E"/>
	<stop  offset="0.1787" style="stop-color:#1B7695"/>
	<stop  offset="0.3994" style="stop-color:#1B7492"/>
	<stop  offset="1" style="stop-color:#0B3E4E"/>
</linearGradient>
<path style="fill:url(#SVGID_00000138532371424613539860000005565888755946457765_);stroke:#000000;stroke-width:0.5;stroke-miterlimit:10;" d="
	M90.36,41.33c5.86-2.83,15.24,6.29,19.29,11.79c1.58,2.14,7.69,10.44,5.36,19.29c-0.37,1.4-1.63,6.17-5.36,7.5
	c-2.93,1.04-5.87-0.59-8.57-2.14c-3.22-1.85-11.09-6.37-13.93-16.07C85.18,54.97,85.07,43.88,90.36,41.33z"/>
<linearGradient id="SVGID_00000030464469269557052900000015658861227478329253_" gradientUnits="userSpaceOnUse" x1="116.9591" y1="66.7027" x2="140.869" y2="86.7655">
	<stop  offset="0" style="stop-color:#1C80A0"/>
	<stop  offset="0.021" style="stop-color:#1C7E9E"/>
	<stop  offset="0.1787" style="stop-color:#1B7695"/>
	<stop  offset="0.3994" style="stop-color:#1B7492"/>
	<stop  offset="1" style="stop-color:#0B3E4E"/>
</linearGradient>
<path style="fill:url(#SVGID_00000030464469269557052900000015658861227478329253_);stroke:#000000;stroke-width:0.5;stroke-miterlimit:10;" d="
	M123.57,59.54c4.28-1.65,10.96,5.01,13.93,10.71c3.12,5.99,2.46,11.54,2.14,13.93c-0.38,2.87-0.79,5.97-3.21,7.5
	c-2.51,1.59-5.73,0.57-7.5,0c-4.49-1.43-7.01-4.69-7.5-5.36c-4.25-5.71-2.96-12.7-2.14-17.14
	C120.14,64.56,120.87,60.58,123.57,59.54z"/>
<linearGradient id="SVGID_00000065791739110527279950000004604055877184166311_" gradientUnits="userSpaceOnUse" x1="71.8105" y1="92.9783" x2="116.6122" y2="130.5714">
	<stop  offset="0" style="stop-color:#E62532"/>
	<stop  offset="0.0138" style="stop-color:#E02532"/>
	<stop  offset="0.0741" style="stop-color:#CA2532"/>
	<stop  offset="0.1402" style="stop-color:#BA2532"/>
	<stop  offset="0.2157" style="stop-color:#B12532"/>
	<stop  offset="0.3212" style="stop-color:#AE2532"/>
	<stop  offset="1" style="stop-color:#502532"/>
</linearGradient>
<path style="fill:url(#SVGID_00000065791739110527279950000004604055877184166311_);stroke:#000000;stroke-width:0.5;stroke-miterlimit:10;" d="
	M92.5,84.18c2.8-0.83,5.29-0.48,7.5,0c12.73,2.76,35.45,14.02,35.36,28.93c0,0.46-0.16,8.78-5.36,11.79
	c-1.33,0.77-2.64,0.99-5.36,1.07c-11.55,0.36-13.91-2.78-18.21-1.07c-3.31,1.31-2.1,3.24-9.64,11.79c-6.12,6.93-8.46,7.4-9.64,7.5
	c-4.08,0.33-7.78-2.68-9.64-5.36c-2.31-3.34-2.23-6.83-2.14-10.71c0.14-6.15,1.85-7.92,3.21-16.07c1.19-7.07,0.01-6.37,1.07-10.71
	C80.11,99.44,83.38,86.88,92.5,84.18z"/>
<g>
	<path d="M207.08,102.46l-2.96,24.06H192l8.32-67.94h20.67c3.85,0,7.16,0.46,9.94,1.39c2.77,0.92,5.05,2.22,6.84,3.88
		c1.79,1.66,3.11,3.63,3.97,5.9c0.86,2.27,1.29,4.77,1.29,7.49c0,3.63-0.57,6.99-1.71,10.08c-1.14,3.09-2.86,5.75-5.14,7.99
		c-2.29,2.24-5.14,3.99-8.57,5.26s-7.43,1.9-12,1.9H207.08z M211.36,67.98l-3.1,24.99h8.55c2.38,0,4.45-0.36,6.2-1.08
		c1.75-0.72,3.21-1.73,4.37-3.03c1.16-1.3,2.01-2.84,2.56-4.63c0.55-1.79,0.82-3.76,0.82-5.92c0-1.53-0.22-2.94-0.66-4.23
		c-0.44-1.28-1.11-2.37-2.02-3.27c-0.91-0.89-2.04-1.59-3.41-2.09c-1.36-0.5-2.98-0.75-4.86-0.75H211.36z"/>
	<path d="M284.37,89.49c0,2.16-0.43,4.13-1.29,5.92c-0.86,1.79-2.4,3.38-4.63,4.79c-2.22,1.41-5.24,2.62-9.04,3.64
		s-8.65,1.82-14.54,2.42v0.61c0,7.58,3.21,11.37,9.63,11.37c1.38,0,2.6-0.13,3.66-0.4c1.06-0.27,2-0.59,2.8-0.96s1.52-0.8,2.16-1.27
		c0.64-0.47,1.24-0.89,1.79-1.27c0.55-0.38,1.09-0.7,1.62-0.96c0.53-0.27,1.11-0.4,1.74-0.4c0.38,0,0.75,0.09,1.13,0.26
		c0.38,0.17,0.69,0.43,0.94,0.77l2.96,3.57c-1.66,1.66-3.29,3.1-4.89,4.32c-1.6,1.22-3.23,2.22-4.89,3.01
		c-1.66,0.78-3.41,1.36-5.26,1.74c-1.85,0.38-3.87,0.56-6.06,0.56c-2.82,0-5.37-0.48-7.66-1.43c-2.29-0.96-4.24-2.3-5.87-4.04
		c-1.63-1.74-2.89-3.84-3.78-6.3s-1.34-5.21-1.34-8.25c0-2.54,0.27-5.03,0.82-7.47c0.55-2.44,1.34-4.76,2.37-6.95
		c1.03-2.19,2.3-4.21,3.81-6.06s3.2-3.45,5.1-4.79c1.9-1.35,3.98-2.4,6.25-3.15c2.27-0.75,4.71-1.13,7.31-1.13
		c2.54,0,4.75,0.36,6.65,1.08c1.89,0.72,3.48,1.65,4.75,2.8c1.27,1.14,2.22,2.42,2.84,3.83C284.05,86.77,284.37,88.15,284.37,89.49z
		 M268.54,85.73c-1.57,0-3.02,0.32-4.37,0.96c-1.35,0.64-2.56,1.54-3.64,2.7c-1.08,1.16-2.02,2.55-2.82,4.16
		c-0.8,1.61-1.43,3.38-1.9,5.29c3.88-0.53,7.01-1.11,9.37-1.74c2.36-0.63,4.2-1.32,5.5-2.07c1.3-0.75,2.16-1.55,2.58-2.4
		s0.63-1.75,0.63-2.72c0-0.47-0.1-0.96-0.31-1.46c-0.2-0.5-0.52-0.95-0.94-1.34s-0.97-0.72-1.64-0.99
		C270.33,85.87,269.51,85.73,268.54,85.73z"/>
	<path d="M292.59,116.7c0-0.22,0-0.48,0-0.78s0.02-0.74,0.07-1.32c0.05-0.58,0.12-1.35,0.23-2.3c0.11-0.96,0.26-2.18,0.45-3.69
		L296.02,87h-4.56c-0.53,0-0.96-0.16-1.29-0.49c-0.33-0.33-0.49-0.82-0.49-1.48c0-0.03,0.01-0.09,0.02-0.19
		c0.02-0.09,0.04-0.31,0.07-0.63c0.03-0.33,0.09-0.82,0.16-1.48c0.08-0.66,0.18-1.58,0.31-2.77l7.33-1.27l3.85-13.16
		c0.19-0.63,0.51-1.11,0.96-1.46c0.45-0.34,1.01-0.52,1.67-0.52h6.2l-1.88,15.18h11.65L319.04,87h-11.7l-2.58,21
		c-0.16,1.29-0.27,2.3-0.35,3.05c-0.08,0.75-0.14,1.34-0.19,1.76s-0.08,0.72-0.09,0.89c-0.02,0.17-0.02,0.29-0.02,0.35
		c0,1.19,0.29,2.13,0.87,2.82c0.58,0.69,1.4,1.03,2.47,1.03c0.66,0,1.22-0.09,1.69-0.26c0.47-0.17,0.88-0.35,1.22-0.54
		c0.34-0.19,0.65-0.37,0.92-0.54c0.27-0.17,0.52-0.26,0.77-0.26c0.34,0,0.62,0.09,0.82,0.26c0.2,0.17,0.38,0.43,0.54,0.78l2.49,5.64
		c-1.72,1.41-3.63,2.48-5.73,3.2c-2.1,0.72-4.21,1.08-6.34,1.08c-3.41,0-6.12-0.92-8.1-2.77
		C293.72,122.65,292.68,120.05,292.59,116.7z"/>
	<path class="st7" d="M350.85,116.93c1.91,0,3.58-0.15,5-0.45c1.42-0.3,2.66-0.68,3.71-1.15c1.05-0.47,1.95-0.96,2.7-1.48
		c0.75-0.52,1.41-1.01,1.97-1.48c0.56-0.47,1.06-0.85,1.5-1.15c0.44-0.3,0.88-0.45,1.32-0.45c0.38,0,0.69,0.08,0.94,0.23
		c0.25,0.16,0.45,0.31,0.61,0.47l4.28,5.31c-2.94,3.38-6.41,5.97-10.38,7.78c-3.98,1.8-8.55,2.7-13.72,2.7
		c-4.17,0-7.88-0.75-11.13-2.23c-3.26-1.49-6.01-3.55-8.27-6.18c-2.26-2.63-3.97-5.75-5.14-9.35c-1.17-3.6-1.76-7.53-1.76-11.79
		c0-3.92,0.42-7.62,1.27-11.11c0.85-3.49,2.05-6.72,3.62-9.68c1.57-2.96,3.45-5.61,5.64-7.96s4.62-4.35,7.28-6.01
		c2.66-1.66,5.54-2.93,8.62-3.81c3.08-0.88,6.3-1.32,9.66-1.32c2.47,0,4.73,0.23,6.77,0.68c2.04,0.45,3.88,1.09,5.54,1.9
		c1.66,0.81,3.15,1.79,4.46,2.94c1.32,1.14,2.51,2.42,3.57,3.83l-4.23,5.07c-0.31,0.38-0.68,0.7-1.1,0.99
		c-0.42,0.28-0.95,0.42-1.57,0.42c-0.69,0-1.35-0.28-1.97-0.85c-0.63-0.56-1.42-1.18-2.37-1.86c-0.96-0.67-2.19-1.29-3.71-1.86
		s-3.52-0.85-5.99-0.85c-3.26,0-6.28,0.67-9.07,2c-2.79,1.33-5.21,3.23-7.28,5.71c-2.07,2.47-3.69,5.46-4.86,8.95
		c-1.17,3.49-1.76,7.42-1.76,11.77c0,3.16,0.4,6,1.2,8.5c0.8,2.51,1.9,4.63,3.31,6.37c1.41,1.74,3.08,3.07,5.03,3.99
		C346.45,116.47,348.56,116.93,350.85,116.93z"/>
	<path class="st7" d="M396.28,127.22c-2.66,0-5.13-0.45-7.4-1.34c-2.27-0.89-4.23-2.2-5.87-3.92c-1.64-1.72-2.94-3.84-3.88-6.34
		c-0.94-2.5-1.41-5.37-1.41-8.6c0-4.17,0.67-8.05,2-11.65c1.33-3.6,3.15-6.72,5.45-9.35c2.3-2.63,4.99-4.7,8.06-6.2
		s6.34-2.25,9.82-2.25c2.66,0,5.13,0.45,7.4,1.34c2.27,0.89,4.24,2.2,5.9,3.92c1.66,1.72,2.96,3.84,3.9,6.34
		c0.94,2.51,1.41,5.37,1.41,8.6c0,4.13-0.67,8-2.02,11.58c-1.35,3.59-3.17,6.7-5.47,9.35c-2.3,2.65-4.99,4.73-8.06,6.25
		C403.03,126.46,399.75,127.22,396.28,127.22z M397.31,118.29c1.94,0,3.7-0.56,5.26-1.67c1.57-1.11,2.91-2.6,4.02-4.46
		c1.11-1.86,1.96-4.03,2.56-6.51c0.59-2.47,0.89-5.07,0.89-7.8c0-3.92-0.67-6.8-2-8.65c-1.33-1.85-3.34-2.77-6.04-2.77
		c-1.94,0-3.7,0.55-5.26,1.64c-1.57,1.1-2.9,2.58-3.99,4.46s-1.94,4.06-2.54,6.53c-0.59,2.48-0.89,5.09-0.89,7.85
		c0,3.92,0.66,6.79,1.97,8.62S394.62,118.29,397.31,118.29z"/>
	<path class="st7" d="M426.06,126.52l5.78-48.25h5.92c1.22,0,2.17,0.3,2.84,0.89c0.67,0.6,1.01,1.55,1.01,2.87l-0.33,6.25
		c2.44-3.6,5.15-6.29,8.13-8.06c2.97-1.77,6.04-2.65,9.21-2.65c1.79,0,3.41,0.32,4.86,0.96c1.46,0.64,2.7,1.58,3.73,2.82
		c1.03,1.24,1.83,2.76,2.4,4.56c0.56,1.8,0.85,3.88,0.85,6.23c0,0.6-0.02,1.2-0.07,1.81c-0.05,0.61-0.1,1.25-0.17,1.9l-3.62,30.68
		H455c0.63-5.29,1.16-9.78,1.6-13.46c0.44-3.68,0.8-6.74,1.08-9.18c0.28-2.44,0.5-4.36,0.66-5.76c0.16-1.39,0.27-2.45,0.35-3.17
		c0.08-0.72,0.12-1.2,0.14-1.43c0.01-0.23,0.02-0.43,0.02-0.59c0-2.07-0.38-3.56-1.13-4.49s-1.93-1.39-3.52-1.39
		c-1.29,0-2.62,0.38-3.99,1.13c-1.38,0.75-2.69,1.82-3.95,3.19c-1.25,1.38-2.4,3.04-3.43,4.98c-1.03,1.94-1.88,4.1-2.54,6.48
		l-2.63,23.68H426.06z"/>
	<path class="st7" d="M476.66,126.52l5.78-48.25h5.92c1.22,0,2.17,0.3,2.84,0.89c0.67,0.6,1.01,1.55,1.01,2.87l-0.33,6.25
		c2.44-3.6,5.15-6.29,8.13-8.06c2.98-1.77,6.04-2.65,9.21-2.65c1.79,0,3.41,0.32,4.86,0.96c1.46,0.64,2.7,1.58,3.73,2.82
		c1.04,1.24,1.83,2.76,2.4,4.56c0.56,1.8,0.85,3.88,0.85,6.23c0,0.6-0.02,1.2-0.07,1.81c-0.05,0.61-0.1,1.25-0.16,1.9l-3.62,30.68
		H505.6c0.63-5.29,1.16-9.78,1.6-13.46c0.44-3.68,0.8-6.74,1.08-9.18c0.28-2.44,0.5-4.36,0.66-5.76c0.16-1.39,0.27-2.45,0.35-3.17
		c0.08-0.72,0.12-1.2,0.14-1.43c0.02-0.23,0.03-0.43,0.03-0.59c0-2.07-0.38-3.56-1.13-4.49s-1.93-1.39-3.52-1.39
		c-1.29,0-2.62,0.38-3.99,1.13c-1.38,0.75-2.69,1.82-3.95,3.19c-1.25,1.38-2.4,3.04-3.43,4.98c-1.03,1.94-1.88,4.1-2.54,6.48
		l-2.63,23.68H476.66z"/>
	<path class="st7" d="M567.95,89.49c0,2.16-0.43,4.13-1.29,5.92c-0.86,1.79-2.4,3.38-4.63,4.79c-2.22,1.41-5.24,2.62-9.04,3.64
		s-8.65,1.82-14.54,2.42v0.61c0,7.58,3.21,11.37,9.63,11.37c1.38,0,2.6-0.13,3.67-0.4c1.06-0.27,2-0.59,2.8-0.96
		c0.8-0.38,1.52-0.8,2.16-1.27c0.64-0.47,1.24-0.89,1.79-1.27c0.55-0.38,1.09-0.7,1.62-0.96c0.53-0.27,1.11-0.4,1.74-0.4
		c0.38,0,0.75,0.09,1.13,0.26s0.69,0.43,0.94,0.77l2.96,3.57c-1.66,1.66-3.29,3.1-4.89,4.32s-3.23,2.22-4.89,3.01
		c-1.66,0.78-3.42,1.36-5.26,1.74c-1.85,0.38-3.87,0.56-6.06,0.56c-2.82,0-5.37-0.48-7.66-1.43s-4.24-2.3-5.87-4.04
		s-2.89-3.84-3.78-6.3c-0.89-2.46-1.34-5.21-1.34-8.25c0-2.54,0.27-5.03,0.82-7.47s1.34-4.76,2.37-6.95
		c1.03-2.19,2.3-4.21,3.81-6.06c1.5-1.85,3.2-3.45,5.1-4.79c1.89-1.35,3.98-2.4,6.25-3.15c2.27-0.75,4.71-1.13,7.31-1.13
		c2.54,0,4.75,0.36,6.65,1.08c1.89,0.72,3.48,1.65,4.75,2.8c1.27,1.14,2.22,2.42,2.84,3.83C567.64,86.77,567.95,88.15,567.95,89.49z
		 M552.12,85.73c-1.57,0-3.02,0.32-4.37,0.96c-1.35,0.64-2.56,1.54-3.64,2.7c-1.08,1.16-2.02,2.55-2.82,4.16
		c-0.8,1.61-1.43,3.38-1.9,5.29c3.88-0.53,7.01-1.11,9.37-1.74c2.36-0.63,4.2-1.32,5.5-2.07c1.3-0.75,2.16-1.55,2.58-2.4
		s0.63-1.75,0.63-2.72c0-0.47-0.1-0.96-0.3-1.46c-0.2-0.5-0.52-0.95-0.94-1.34s-0.97-0.72-1.64-0.99
		C553.91,85.87,553.09,85.73,552.12,85.73z"/>
	<path class="st7" d="M604.05,122.38c-1.46,1.19-2.94,2.15-4.44,2.87c-1.5,0.72-3.08,1.23-4.75,1.53c-1.66,0.3-3.48,0.45-5.45,0.45
		c-2.79,0-5.29-0.48-7.49-1.43c-2.21-0.96-4.08-2.31-5.61-4.06c-1.54-1.75-2.7-3.87-3.5-6.34s-1.2-5.23-1.2-8.27
		c0-3.92,0.63-7.65,1.88-11.21c1.25-3.55,3.01-6.69,5.26-9.4c2.26-2.71,4.93-4.87,8.03-6.48c3.1-1.61,6.48-2.42,10.15-2.42
		c3.19,0,5.91,0.56,8.15,1.69c2.24,1.13,4.24,2.82,5.99,5.07l-3.71,4.42c-0.28,0.28-0.6,0.54-0.96,0.78
		c-0.36,0.23-0.76,0.35-1.2,0.35c-0.53,0-1.02-0.16-1.46-0.49c-0.44-0.33-0.95-0.68-1.53-1.06c-0.58-0.38-1.3-0.73-2.16-1.06
		c-0.86-0.33-1.98-0.49-3.36-0.49c-1.79,0-3.49,0.49-5.12,1.46c-1.63,0.97-3.06,2.35-4.3,4.13c-1.24,1.79-2.22,3.93-2.96,6.44
		c-0.74,2.51-1.1,5.28-1.1,8.32c0,3.54,0.78,6.27,2.35,8.2c1.57,1.93,3.68,2.89,6.34,2.89c1.79,0,3.27-0.26,4.44-0.77
		c1.17-0.52,2.17-1.08,2.98-1.69c0.81-0.61,1.54-1.17,2.19-1.69c0.64-0.52,1.34-0.78,2.09-0.78c0.38,0,0.74,0.1,1.1,0.31
		c0.36,0.2,0.68,0.46,0.96,0.77l2.96,3.57C607.04,119.72,605.51,121.19,604.05,122.38z"/>
	<path class="st7" d="M617.09,116.7c0-0.22,0-0.48,0-0.78s0.02-0.74,0.07-1.32c0.05-0.58,0.12-1.35,0.24-2.3
		c0.11-0.96,0.26-2.18,0.45-3.69L620.52,87h-4.56c-0.53,0-0.96-0.16-1.29-0.49c-0.33-0.33-0.49-0.82-0.49-1.48
		c0-0.03,0.01-0.09,0.02-0.19c0.02-0.09,0.04-0.31,0.07-0.63c0.03-0.33,0.09-0.82,0.16-1.48s0.18-1.58,0.31-2.77l7.33-1.27
		l3.85-13.16c0.19-0.63,0.51-1.11,0.96-1.46s1.01-0.52,1.67-0.52h6.2l-1.88,15.18h11.65L643.54,87h-11.7l-2.58,21
		c-0.16,1.29-0.27,2.3-0.35,3.05c-0.08,0.75-0.14,1.34-0.19,1.76c-0.05,0.42-0.08,0.72-0.09,0.89s-0.02,0.29-0.02,0.35
		c0,1.19,0.29,2.13,0.87,2.82c0.58,0.69,1.4,1.03,2.47,1.03c0.66,0,1.22-0.09,1.69-0.26c0.47-0.17,0.88-0.35,1.22-0.54
		c0.34-0.19,0.65-0.37,0.92-0.54c0.27-0.17,0.52-0.26,0.78-0.26c0.34,0,0.62,0.09,0.82,0.26c0.2,0.17,0.38,0.43,0.54,0.78l2.49,5.64
		c-1.72,1.41-3.63,2.48-5.73,3.2s-4.21,1.08-6.34,1.08c-3.41,0-6.12-0.92-8.1-2.77C618.23,122.65,617.19,120.05,617.09,116.7z"/>
</g>
</svg>
